<svg id="visual" viewBox="0 0 960 540" width="960" height="540" xmlns="http://www.w3.org/2000/svg" xmlns:xlink="http://www.w3.org/1999/xlink" version="1.1"><path d="M0 66L87 87L175 98L262 39L349 66L436 114L524 87L611 114L698 98L785 60L873 104L960 93L960 0L873 0L785 0L698 0L611 0L524 0L436 0L349 0L262 0L175 0L87 0L0 0Z" fill="#00cc8e"></path><path d="M0 114L87 163L175 233L262 163L349 152L436 206L524 222L611 217L698 222L785 185L873 228L960 147L960 91L873 102L785 58L698 96L611 112L524 85L436 112L349 64L262 37L175 96L87 85L0 64Z" fill="#00b98a"></path><path d="M0 276L87 287L175 417L262 293L349 357L436 374L524 330L611 384L698 347L785 395L873 352L960 352L960 145L873 226L785 183L698 220L611 215L524 220L436 204L349 150L262 161L175 231L87 161L0 112Z" fill="#00a784"></path><path d="M0 492L87 455L175 503L262 476L349 492L436 476L524 465L611 482L698 455L785 487L873 509L960 482L960 350L873 350L785 393L698 345L611 382L524 328L436 372L349 355L262 291L175 415L87 285L0 274Z" fill="#00957c"></path><path d="M0 541L87 541L175 541L262 541L349 541L436 541L524 541L611 541L698 541L785 541L873 541L960 541L960 480L873 507L785 485L698 453L611 480L524 463L436 474L349 490L262 474L175 501L87 453L0 490Z" fill="#038373"></path></svg>