<svg id="visual" viewBox="0 0 960 540" width="960" height="540" xmlns="http://www.w3.org/2000/svg" xmlns:xlink="http://www.w3.org/1999/xlink" version="1.1"><rect x="0" y="0" width="960" height="540" fill="#002233"></rect><path d="M0 46L53 46L53 50L107 50L107 52L160 52L160 48L213 48L213 65L267 65L267 55L320 55L320 45L373 45L373 42L427 42L427 52L480 52L480 69L533 69L533 48L587 48L587 39L640 39L640 38L693 38L693 47L747 47L747 62L800 62L800 40L853 40L853 59L907 59L907 59L960 59L960 58L960 0L960 0L907 0L907 0L853 0L853 0L800 0L800 0L747 0L747 0L693 0L693 0L640 0L640 0L587 0L587 0L533 0L533 0L480 0L480 0L427 0L427 0L373 0L373 0L320 0L320 0L267 0L267 0L213 0L213 0L160 0L160 0L107 0L107 0L53 0L53 0L0 0Z" fill="#6600FF" stroke-linecap="square" stroke-linejoin="miter"></path></svg>